<svg width="100" height="100" viewBox="0 0 100 100" fill="none" xmlns="http://www.w3.org/2000/svg">
  <rect width="100" height="100" rx="15" fill="#0F172A"/>
  <g opacity="0.6">
    <circle cx="30" cy="30" r="3" fill="#3B82F6"/>
    <circle cx="70" cy="30" r="3" fill="#3B82F6"/>
    <circle cx="30" cy="70" r="3" fill="#3B82F6"/>
    <circle cx="70" cy="70" r="3" fill="#3B82F6"/>
    <circle cx="50" cy="50" r="4" fill="#6366F1"/>
    <line x1="30" y1="30" x2="50" y2="50" stroke="#3B82F6" stroke-width="1"/>
    <line x1="70" y1="30" x2="50" y2="50" stroke="#3B82F6" stroke-width="1"/>
    <line x1="30" y1="70" x2="50" y2="50" stroke="#3B82F6" stroke-width="1"/>
    <line x1="70" y1="70" x2="50" y2="50" stroke="#3B82F6" stroke-width="1"/>
  </g>
  <path d="M40 50C40 44.4772 44.4772 40 50 40C55.5228 40 60 44.4772 60 50C60 55.5228 55.5228 60 50 60C44.4772 60 40 55.5228 40 50Z" stroke="white" stroke-width="2"/>
  <path d="M57 57L65 65" stroke="white" stroke-width="2" stroke-linecap="round"/>
</svg>

