<svg
  width="100"
  height="100"
  viewBox="0 0 100 100"
  fill="none"
  xmlns="http://www.w3.org/2000/svg"
>
  <!-- Outer square with rounded corners -->
  <rect x="5" y="5" width="90" height="90" rx="20" fill="url(#paint0_linear_logo)" />
  <defs>
    <linearGradient id="paint0_linear_logo" x1="50" y1="5" x2="50" y2="95" gradientUnits="userSpaceOnUse">
      <stop stop-color="#3B82F6"/>
      <stop offset="1" stop-color="#6366F1"/>
    </linearGradient>
  </defs>

  <!-- Inner rounded square for depth effect -->
  <rect x="10" y="10" width="80" height="80" rx="15" fill="#0F172A" stroke="#1E293B" stroke-width="2"/>

  <!-- Abstract Mesh/Grid pattern -->
  <g opacity="0.7">
    <!-- Horizontal lines -->
    <line x1="20" y1="25" x2="80" y2="25" stroke="#3B82F6" stroke-width="1" />
    <line x1="20" y1="40" x2="80" y2="40" stroke="#3B82F6" stroke-width="1" />
    <line x1="20" y1="55" x2="80" y2="55" stroke="#3B82F6" stroke-width="1" />
    <line x1="20" y1="70" x2="80" y2="70" stroke="#3B82F6" stroke-width="1" />
    <line x1="20" y1="85" x2="80" y2="85" stroke="#3B82F6" stroke-width="1" />
    <!-- Vertical lines -->
    <line x1="25" y1="20" x2="25" y2="80" stroke="#3B82F6" stroke-width="1" />
    <line x1="40" y1="20" x2="40" y2="80" stroke="#3B82F6" stroke-width="1" />
    <line x1="55" y1="20" x2="55" y2="80" stroke="#3B82F6" stroke-width="1" />
    <line x1="70" y1="20" x2="70" y2="80" stroke="#3B82F6" stroke-width="1" />
    <line x1="85" y1="20" x2="85" y2="80" stroke="#3B82F6" stroke-width="1" />
    <!-- Diagonal lines for mesh effect -->
    <line x1="20" y1="20" x2="80" y2="80" stroke="#3B82F6" stroke-width="0.5" />
    <line x1="80" y1="20" x2="20" y2="80" stroke="#3B82F6" stroke-width="0.5" />
  </g>

  <!-- Central "Q" -->
  <text
    x="50%"
    y="58%"
    dominant-baseline="middle"
    text-anchor="middle"
    font-size="50"
    font-weight="bold"
    fill="white"
    font-family="Arial, sans-serif"
  >
    Q
  </text>
</svg>

